<svg width="168" height="40" viewBox="0 0 168 40" fill="none" xmlns="http://www.w3.org/2000/svg">
    <path fill-rule="evenodd" clip-rule="evenodd" d="M113.263 8C117.681 8 121.263 11.5817 121.263 16V17.75H128L121.263 23.75V24C121.263 28.4183 117.681 32 113.263 32H8.00002C3.58175 32 2.28882e-05 28.4183 2.28882e-05 24V16C2.28882e-05 11.5817 3.58174 8 8.00002 8H113.263Z" fill="#ECEAF9"/>
    <path d="M16.8641 24H15.7332V16.3945H11.5262V24H10.4012V15.4688H16.8641V24ZM24.5004 20.9004C24.5004 21.8652 24.2797 22.6426 23.8383 23.2324C23.3969 23.8223 22.7992 24.1172 22.0453 24.1172C21.2758 24.1172 20.6703 23.873 20.2289 23.3848V26.4375H19.1449V17.6602H20.1352L20.1879 18.3633C20.6293 17.8164 21.2426 17.543 22.0277 17.543C22.7895 17.543 23.391 17.8301 23.8324 18.4043C24.2777 18.9785 24.5004 19.7773 24.5004 20.8008V20.9004ZM23.4164 20.7773C23.4164 20.0625 23.2641 19.498 22.9594 19.084C22.6547 18.6699 22.2367 18.4629 21.7055 18.4629C21.0492 18.4629 20.557 18.7539 20.2289 19.3359V22.3652C20.5531 22.9434 21.0492 23.2324 21.7172 23.2324C22.2367 23.2324 22.6488 23.0273 22.9535 22.6172C23.2621 22.2031 23.4164 21.5898 23.4164 20.7773ZM30.3848 17.6602H31.4688V24H30.3848V19.377L27.4609 24H26.377V17.6602H27.4609V22.2891L30.3848 17.6602ZM33.7086 24V17.6602H36.1813C37.025 17.6602 37.6715 17.8086 38.1207 18.1055C38.5738 18.3984 38.8004 18.8301 38.8004 19.4004C38.8004 19.6934 38.7125 19.959 38.5367 20.1973C38.3609 20.4316 38.1012 20.6113 37.7574 20.7363C38.1402 20.8262 38.4469 21.002 38.6773 21.2637C38.9117 21.5254 39.0289 21.8379 39.0289 22.2012C39.0289 22.7832 38.8141 23.2285 38.3844 23.5371C37.9586 23.8457 37.3551 24 36.5738 24H33.7086ZM34.7926 21.2168V23.127H36.5855C37.0387 23.127 37.3766 23.043 37.5992 22.875C37.8258 22.707 37.9391 22.4707 37.9391 22.166C37.9391 21.5332 37.4742 21.2168 36.5445 21.2168H34.7926ZM34.7926 20.3496H36.193C37.2086 20.3496 37.7164 20.0527 37.7164 19.459C37.7164 18.8652 37.2359 18.5586 36.275 18.5391H34.7926V20.3496ZM43.4953 24.1172C42.6359 24.1172 41.9367 23.8359 41.3977 23.2734C40.8586 22.707 40.5891 21.9512 40.5891 21.0059V20.8066C40.5891 20.1777 40.7082 19.6172 40.9465 19.125C41.1887 18.6289 41.5246 18.2422 41.9543 17.9648C42.3879 17.6836 42.8566 17.543 43.3605 17.543C44.1848 17.543 44.8254 17.8145 45.2824 18.3574C45.7395 18.9004 45.968 19.6777 45.968 20.6895V21.1406H41.673C41.6887 21.7656 41.8703 22.2715 42.218 22.6582C42.5695 23.041 43.0148 23.2324 43.5539 23.2324C43.9367 23.2324 44.2609 23.1543 44.5266 22.998C44.7922 22.8418 45.0246 22.6348 45.2238 22.377L45.8859 22.8926C45.3547 23.709 44.5578 24.1172 43.4953 24.1172ZM43.3605 18.4336C42.923 18.4336 42.5559 18.5938 42.259 18.9141C41.9621 19.2305 41.7785 19.6758 41.7082 20.25H44.884V20.168C44.8527 19.6172 44.7043 19.1914 44.4387 18.8906C44.173 18.5859 43.8137 18.4336 43.3605 18.4336ZM52.2684 18.5391H50.1414V24H49.0574V18.5391H46.9715V17.6602H52.2684V18.5391ZM53.7465 23.4316C53.7465 23.2441 53.8012 23.0879 53.9105 22.9629C54.0238 22.8379 54.1918 22.7754 54.4145 22.7754C54.6371 22.7754 54.8051 22.8379 54.9184 22.9629C55.0355 23.0879 55.0941 23.2441 55.0941 23.4316C55.0941 23.6113 55.0355 23.7617 54.9184 23.8828C54.8051 24.0039 54.6371 24.0645 54.4145 24.0645C54.1918 24.0645 54.0238 24.0039 53.9105 23.8828C53.8012 23.7617 53.7465 23.6113 53.7465 23.4316ZM65.2984 24V20.6777H63.3297L61.566 24H60.3648L62.3453 20.3672C61.2438 19.9336 60.693 19.1582 60.693 18.041C60.693 17.2285 60.9586 16.5977 61.4898 16.1484C62.025 15.6953 62.7672 15.4688 63.7164 15.4688H66.4293V24H65.2984ZM61.818 18.041C61.818 18.5566 61.9781 18.9707 62.2984 19.2832C62.6227 19.5957 63.0719 19.7539 63.6461 19.7578H65.2984V16.3945H63.6988C63.0895 16.3945 62.6227 16.5391 62.2984 16.8281C61.9781 17.1172 61.818 17.5215 61.818 18.041ZM73.2527 21.293C73.3621 21.9961 73.5828 22.4902 73.9148 22.7754C74.2508 23.0566 74.7313 23.1973 75.3563 23.1973C76.032 23.1973 76.5652 22.9336 76.9559 22.4062C77.3504 21.8789 77.5516 21.1465 77.5594 20.209H74.202V19.2832H77.5594C77.5594 18.3574 77.3563 17.625 76.95 17.0859C76.5477 16.5469 75.9832 16.2773 75.2566 16.2773C74.6707 16.2773 74.2137 16.4297 73.8855 16.7344C73.5613 17.0391 73.3504 17.5312 73.2527 18.2109H72.1219C72.2117 17.3164 72.5301 16.6172 73.077 16.1133C73.6238 15.6055 74.3504 15.3516 75.2566 15.3516C75.9441 15.3516 76.5477 15.5156 77.0672 15.8438C77.5906 16.168 77.991 16.6328 78.2684 17.2383C78.5496 17.8398 78.6902 18.5332 78.6902 19.3184V20.168C78.6902 20.9531 78.5516 21.6465 78.2742 22.248C77.9969 22.8496 77.6043 23.3125 77.0965 23.6367C76.5926 23.957 76.0125 24.1172 75.3563 24.1172C74.4266 24.1172 73.6805 23.873 73.118 23.3848C72.5594 22.8926 72.2273 22.1953 72.1219 21.293H73.2527ZM84.2172 22.5645L86.3734 17.6602H87.727V24H86.643V19.3887L84.5922 24H83.8422L81.7504 19.2891V24H80.6664V17.6602H82.0727L84.2172 22.5645ZM93.9746 17.6602H95.0586V24H93.9746V19.377L91.0508 24H89.9668V17.6602H91.0508V22.2891L93.9746 17.6602ZM102.396 17.6602V24H101.306V18.5566H99.15L99.0211 20.9297C98.9508 22.0195 98.7672 22.7988 98.4703 23.2676C98.1773 23.7363 97.7105 23.9805 97.0699 24H96.6363V23.0449L96.9469 23.0215C97.2984 22.9824 97.5504 22.7793 97.7027 22.4121C97.8551 22.0449 97.9527 21.3652 97.9957 20.373L98.1129 17.6602H102.396ZM108.638 17.6602H109.722V24H108.638V19.377L105.714 24H104.63V17.6602H105.714V22.2891L108.638 17.6602Z" fill="#2A2D43"/>
    <path fill-rule="evenodd" clip-rule="evenodd" d="M160.795 7.57515C160.544 7.82532 160.09 8.15366 159.574 8.43509C159.104 8.68526 158.587 8.90415 158.133 9.0136C157.961 9.04487 157.789 9.07614 157.632 9.07614C157.523 9.07614 157.413 9.0605 157.319 9.02923C157.21 8.99796 157.116 8.95106 157.053 8.87288C156.99 8.81034 156.943 8.7478 156.912 8.66962C156.896 8.65399 156.896 8.62271 156.881 8.60708C156.865 8.5289 156.849 8.45073 156.834 8.35691C156.834 8.34128 156.834 8.34128 156.834 8.32564C156.818 8.18493 156.834 8.01294 156.865 7.84095C156.943 7.38753 157.147 6.85593 157.397 6.37124C157.664 5.83964 157.977 5.37058 158.227 5.10478C158.916 4.40119 160.043 4.38556 160.748 5.07351C161.468 5.73019 161.484 6.87156 160.795 7.57515Z" fill="#2A2D43"/>
    <path d="M159.511 4.5419C159.965 4.5419 160.404 4.71389 160.748 5.04223C161.453 5.73018 161.468 6.85592 160.779 7.55951C160.529 7.80967 160.075 8.13801 159.558 8.41945C159.088 8.66961 158.572 8.88851 158.118 8.99795C157.945 9.02922 157.789 9.06049 157.632 9.06049H157.617C157.507 9.06049 157.397 9.04486 157.304 9.01359C157.194 8.98232 157.1 8.93541 157.037 8.85724C156.975 8.79469 156.928 8.73215 156.896 8.65398C156.881 8.63834 156.881 8.60707 156.865 8.59144C156.849 8.51326 156.834 8.43508 156.818 8.34127C156.818 8.32564 156.818 8.32564 156.818 8.31C156.802 8.16928 156.818 7.9973 156.849 7.82531C156.928 7.37189 157.131 6.84029 157.382 6.35559C157.648 5.82399 157.961 5.35494 158.212 5.08914C158.587 4.72953 159.057 4.5419 159.511 4.5419ZM159.511 4.16666C158.916 4.16666 158.368 4.40119 157.961 4.82334C157.679 5.10477 157.35 5.62074 157.053 6.18361C156.771 6.74648 156.568 7.30934 156.489 7.76277C156.442 7.98166 156.442 8.16928 156.442 8.34127C156.442 8.35691 156.442 8.37254 156.442 8.40381C156.442 8.49762 156.458 8.5758 156.489 8.65398V8.66961L156.505 8.73215C156.521 8.76342 156.521 8.79469 156.536 8.82597C156.583 8.95105 156.662 9.06049 156.756 9.15431C156.881 9.27939 157.022 9.35756 157.194 9.40447C157.319 9.43574 157.444 9.46701 157.601 9.46701H157.632C157.805 9.46701 157.992 9.45138 158.196 9.40447C158.775 9.27939 159.355 8.99795 159.746 8.79469C160.294 8.49762 160.779 8.15365 161.061 7.87221C161.468 7.4657 161.687 6.91846 161.672 6.33996C161.656 5.76145 161.437 5.22985 161.014 4.82334C160.623 4.38555 160.09 4.16666 159.511 4.16666Z" fill="#2A2D43"/>
    <path opacity="0.25" fill-rule="evenodd" clip-rule="evenodd" d="M158.133 8.99796C158.18 9.07614 158.227 9.15431 158.259 9.23249L157.773 9.34194L157.601 9.37321L157.1 9.48265L156.912 8.63835L156.896 8.57581L156.834 8.32564V8.29437L156.708 7.7315C156.771 7.74714 156.818 7.77841 156.881 7.80968C156.959 7.35626 157.163 6.82466 157.413 6.33997C157.538 6.79339 157.773 7.27808 158.196 7.65333C158.634 8.02857 159.135 8.2631 159.574 8.41946C159.104 8.68526 158.587 8.90415 158.133 8.99796Z" fill="#2A2D43"/>
    <path fill-rule="evenodd" clip-rule="evenodd" d="M158.525 10.6396C158.525 10.7335 158.509 10.8116 158.493 10.9054C158.462 11.0462 158.431 11.1712 158.384 11.312C158.368 11.3745 158.337 11.437 158.306 11.4996C158.243 11.6247 158.18 11.7498 158.086 11.8592C158.039 11.9374 157.977 11.9999 157.914 12.0781C157.836 12.1563 157.742 12.2501 157.648 12.3126C156.583 13.11 154.986 12.7973 154.094 11.5934C153.436 10.7335 153.327 9.63899 153.718 8.81032C153.812 8.60706 153.937 8.41944 154.094 8.24745C154.156 8.18491 154.203 8.12237 154.282 8.07546C154.313 8.04419 154.36 8.01292 154.391 7.99729C154.407 7.99729 154.407 7.98165 154.423 7.98165C154.657 7.80966 154.924 7.68458 155.19 7.62204C155.268 7.60641 155.346 7.59077 155.44 7.57514C155.863 7.52823 156.317 7.59077 156.74 7.76276C156.802 7.77839 156.849 7.80966 156.912 7.84094C157.303 8.02856 157.679 8.32563 157.961 8.71651C158.039 8.81032 158.102 8.91977 158.165 9.01358C158.212 9.09176 158.259 9.16993 158.29 9.24811C158.478 9.6859 158.556 10.1706 158.525 10.6396Z" fill="#6355E0"/>
    <path d="M155.707 7.54387C156.035 7.54387 156.38 7.60641 156.709 7.74712C156.771 7.76276 156.818 7.79403 156.881 7.8253C157.272 8.01292 157.648 8.30999 157.93 8.70088C158.008 8.79469 158.071 8.90413 158.133 8.99795C158.18 9.07612 158.227 9.1543 158.259 9.23248C158.478 9.6859 158.556 10.1706 158.525 10.6396C158.525 10.7335 158.509 10.8116 158.493 10.9054C158.462 11.0462 158.431 11.1712 158.384 11.312C158.368 11.3745 158.337 11.437 158.306 11.4996C158.243 11.6247 158.18 11.7498 158.086 11.8592C158.039 11.9374 157.977 11.9999 157.914 12.0781C157.836 12.1563 157.742 12.2501 157.648 12.3126C157.257 12.6097 156.787 12.7504 156.301 12.7504C155.487 12.7504 154.657 12.3439 154.078 11.5934C153.421 10.7335 153.311 9.63899 153.702 8.81032C153.796 8.60706 153.922 8.41944 154.078 8.24745C154.141 8.18491 154.188 8.12237 154.266 8.07547C154.297 8.04419 154.344 8.01292 154.376 7.99729C154.391 7.99729 154.391 7.98165 154.407 7.98165C154.642 7.80967 154.908 7.68458 155.174 7.62204C155.252 7.60641 155.331 7.59077 155.425 7.57514C155.519 7.54387 155.613 7.54387 155.707 7.54387ZM155.707 7.15298C155.597 7.15298 155.472 7.15298 155.362 7.16862C155.268 7.18426 155.174 7.19989 155.08 7.21553C154.751 7.2937 154.454 7.43442 154.188 7.62204C154.172 7.63768 154.156 7.63768 154.141 7.65331C154.094 7.68458 154.047 7.71585 154.016 7.76276C153.937 7.8253 153.875 7.90348 153.796 7.96602C153.624 8.15364 153.468 8.37254 153.358 8.6227C152.904 9.60772 153.061 10.8585 153.781 11.7967C154.407 12.6097 155.346 13.11 156.301 13.11C156.881 13.11 157.429 12.938 157.867 12.5941C157.977 12.5159 158.086 12.4221 158.18 12.3126C158.259 12.2344 158.321 12.1563 158.384 12.0625C158.478 11.9374 158.572 11.781 158.634 11.6403C158.666 11.5621 158.697 11.484 158.728 11.4058L158.744 11.3432C158.791 11.2182 158.822 11.0774 158.838 10.9524C158.854 10.8429 158.869 10.7491 158.869 10.6553C158.916 10.1237 158.807 9.57645 158.556 9.06049C158.509 8.96668 158.462 8.87286 158.415 8.79469C158.352 8.68524 158.274 8.57579 158.196 8.46635C157.883 8.04419 157.46 7.70022 157.006 7.48133C156.928 7.45005 156.865 7.41878 156.802 7.38751C156.489 7.23116 156.098 7.15298 155.707 7.15298Z" fill="#2A2D43"/>
    <path opacity="0.25" fill-rule="evenodd" clip-rule="evenodd" d="M158.525 10.6396C158.525 10.7335 158.509 10.8116 158.493 10.9054C158.462 11.0462 158.431 11.1712 158.384 11.312C158.368 11.3745 158.337 11.437 158.305 11.4996C158.243 11.6247 158.18 11.7498 158.086 11.8592C158.086 11.8748 158.071 11.8748 158.071 11.8905C157.116 11.8905 156.16 11.8123 156.16 11.8123L153.859 8.6227C153.922 8.49762 154 8.37253 154.078 8.24745C154.141 8.18491 154.188 8.12237 154.266 8.07546C154.297 8.04419 154.344 8.01292 154.376 7.99729C154.391 7.99729 154.391 7.98165 154.407 7.98165C154.642 7.80966 154.908 7.68458 155.174 7.62204C155.252 7.6064 155.331 7.59077 155.425 7.57513C155.91 8.37253 156.928 9.7328 158.525 10.6396Z" fill="#2A2D43"/>
    <path opacity="0.2" fill-rule="evenodd" clip-rule="evenodd" d="M156.129 8.09109C156.129 8.09109 156.928 8.18491 157.382 8.70087C157.82 9.2012 157.945 9.92042 157.945 9.92042C157.945 9.92042 157.648 9.35755 157.209 8.87286C156.818 8.45071 156.176 8.138 156.129 8.09109Z" fill="white"/>
    <path opacity="0.2" fill-rule="evenodd" clip-rule="evenodd" d="M159.574 4.94843C159.574 4.94843 160.497 5.15168 160.795 6.13671C161.092 7.12173 160.419 6.98101 160.372 6.57449C160.325 6.19925 160.372 5.91781 160.012 5.54257C159.683 5.21422 159.417 4.96406 159.574 4.94843Z" fill="white"/>
    <path fill-rule="evenodd" clip-rule="evenodd" d="M135.118 7.57516C135.368 7.82533 135.822 8.15367 136.339 8.4351C136.809 8.68527 137.325 8.90416 137.78 9.01361C137.952 9.04488 138.124 9.07615 138.281 9.07615C138.39 9.07615 138.5 9.06051 138.594 9.02924C138.703 8.99797 138.797 8.95107 138.86 8.87289C138.922 8.81035 138.969 8.74781 139.001 8.66963C139.016 8.654 139.016 8.62273 139.032 8.60709C139.048 8.52891 139.063 8.45074 139.079 8.35693C139.079 8.34129 139.079 8.34129 139.079 8.32566C139.095 8.18494 139.079 8.01295 139.048 7.84096C138.969 7.38754 138.766 6.85594 138.515 6.37125C138.234 5.80838 137.92 5.33932 137.67 5.08915C136.981 4.38557 135.854 4.36993 135.149 5.05788C134.445 5.7302 134.429 6.87158 135.118 7.57516Z" fill="#2A2D43"/>
    <path d="M136.402 4.5419C136.871 4.5419 137.325 4.72953 137.686 5.0735C137.92 5.3393 138.234 5.80836 138.515 6.35559C138.75 6.84029 138.954 7.37189 139.048 7.82531C139.079 7.9973 139.095 8.16929 139.079 8.31C139.079 8.32564 139.079 8.32564 139.079 8.34127C139.079 8.43508 139.063 8.51326 139.032 8.59144C139.032 8.60707 139.016 8.63834 139.001 8.65398C138.969 8.73215 138.922 8.7947 138.86 8.85724C138.781 8.93541 138.688 8.98232 138.594 9.01359C138.5 9.04486 138.406 9.0605 138.28 9.0605H138.265C138.124 9.0605 137.952 9.04486 137.779 8.99795C137.325 8.90414 136.809 8.68525 136.339 8.41945C135.822 8.13801 135.368 7.80967 135.118 7.55951C134.429 6.85592 134.445 5.73018 135.149 5.04223C135.509 4.71389 135.948 4.5419 136.402 4.5419ZM136.402 4.16666C135.838 4.16666 135.306 4.38555 134.899 4.77643C134.492 5.18295 134.257 5.71455 134.241 6.29305C134.225 6.87156 134.445 7.41879 134.852 7.82531C135.133 8.10674 135.619 8.45072 136.167 8.74779C136.543 8.95105 137.122 9.23248 137.717 9.35757C137.92 9.40447 138.108 9.42011 138.28 9.42011H138.312C138.468 9.42011 138.594 9.40447 138.719 9.35757C138.891 9.31066 139.032 9.23248 139.142 9.1074C139.236 9.01359 139.314 8.90414 139.361 8.77906C139.376 8.74779 139.392 8.71652 139.392 8.68525L139.408 8.62271V8.60707C139.423 8.5289 139.439 8.43508 139.455 8.35691C139.455 8.34127 139.455 8.31 139.455 8.29437C139.47 8.12238 139.455 7.93476 139.408 7.71586C139.329 7.26244 139.126 6.69957 138.844 6.1367C138.562 5.57383 138.218 5.0735 137.936 4.77643C137.545 4.40119 136.981 4.16666 136.402 4.16666Z" fill="#2A2D43"/>
    <path opacity="0.25" fill-rule="evenodd" clip-rule="evenodd" d="M137.795 8.99796C137.748 9.07614 137.701 9.15431 137.67 9.23249L138.155 9.34194L138.327 9.37321L138.829 9.48265L139.016 8.63835L139.032 8.57581L139.095 8.32564V8.29437L139.22 7.7315C139.157 7.74714 139.11 7.77841 139.048 7.80968C138.969 7.35626 138.766 6.82466 138.515 6.33997C138.39 6.79339 138.155 7.27808 137.733 7.65333C137.294 8.02857 136.793 8.2631 136.355 8.41946C136.809 8.68526 137.325 8.90415 137.795 8.99796Z" fill="#2A2D43"/>
    <path fill-rule="evenodd" clip-rule="evenodd" d="M137.388 10.6396C137.388 10.7335 137.404 10.8116 137.419 10.9054C137.451 11.0462 137.482 11.1712 137.529 11.312C137.545 11.3745 137.576 11.437 137.607 11.4996C137.67 11.6247 137.732 11.7498 137.826 11.8592C137.873 11.9374 137.936 11.9999 137.999 12.0781C138.077 12.1563 138.171 12.2501 138.265 12.3126C139.329 13.11 140.926 12.7973 141.819 11.5934C142.477 10.7335 142.586 9.63899 142.195 8.81032C142.101 8.60706 141.975 8.41944 141.819 8.24745C141.756 8.18491 141.709 8.12237 141.631 8.07546C141.6 8.04419 141.553 8.01292 141.521 7.99729C141.506 7.99729 141.506 7.98165 141.49 7.98165C141.255 7.80966 140.989 7.68458 140.723 7.62204C140.645 7.60641 140.566 7.59077 140.472 7.57514C140.05 7.52823 139.596 7.59077 139.173 7.76276C139.11 7.77839 139.063 7.80966 139.001 7.84094C138.609 8.02856 138.234 8.32563 137.952 8.71651C137.873 8.81032 137.811 8.91977 137.748 9.01358C137.701 9.09176 137.654 9.16993 137.623 9.24811C137.451 9.6859 137.357 10.1706 137.388 10.6396Z" fill="#6355E0"/>
    <path d="M140.206 7.54387C140.3 7.54387 140.41 7.54387 140.504 7.5595C140.582 7.57514 140.66 7.59077 140.754 7.60641C141.02 7.66895 141.287 7.79403 141.521 7.96602C141.537 7.96602 141.537 7.98165 141.553 7.98165C141.584 8.01292 141.631 8.04419 141.662 8.05983C141.725 8.12237 141.788 8.16928 141.85 8.23182C142.007 8.40381 142.132 8.59143 142.226 8.79469C142.602 9.63899 142.477 10.7335 141.835 11.5934C141.271 12.3439 140.426 12.7504 139.611 12.7504C139.126 12.7504 138.672 12.6097 138.265 12.3126C138.171 12.2344 138.077 12.1563 137.999 12.0781C137.936 12.0156 137.873 11.9374 137.826 11.8592C137.748 11.7498 137.67 11.6247 137.607 11.4996C137.576 11.437 137.545 11.3745 137.529 11.312C137.482 11.1869 137.451 11.0462 137.419 10.9054C137.404 10.8273 137.388 10.7335 137.388 10.6396C137.357 10.1862 137.435 9.70153 137.654 9.23248C137.686 9.1543 137.733 9.07612 137.78 8.99795C137.842 8.8885 137.905 8.79469 137.983 8.70088C138.281 8.30999 138.641 8.01292 139.032 7.8253C139.095 7.79403 139.142 7.7784 139.204 7.74712C139.533 7.60641 139.862 7.54387 140.206 7.54387ZM140.206 7.15298C139.815 7.15298 139.439 7.23116 139.063 7.38751C139.001 7.40315 138.938 7.43442 138.875 7.46569C138.406 7.70022 137.999 8.04419 137.686 8.45071C137.592 8.57579 137.529 8.68524 137.466 8.79469C137.419 8.87286 137.372 8.96668 137.325 9.06049C137.091 9.56082 136.981 10.1237 137.012 10.6553C137.012 10.7491 137.028 10.8429 137.044 10.9524C137.075 11.0774 137.106 11.2182 137.138 11.3432L137.153 11.4058C137.185 11.484 137.216 11.5465 137.247 11.6403C137.325 11.7967 137.404 11.9374 137.498 12.0781C137.56 12.1719 137.639 12.2501 137.701 12.3283C137.795 12.4377 137.905 12.5315 138.014 12.6097C138.468 12.9537 139.001 13.1257 139.58 13.1257C140.535 13.1257 141.49 12.641 142.101 11.8123C142.821 10.8742 142.978 9.62336 142.524 8.63834C142.414 8.38817 142.257 8.16928 142.085 7.98165C142.022 7.90348 141.944 7.84094 141.866 7.7784C141.835 7.74712 141.788 7.71585 141.741 7.68458C141.725 7.66895 141.709 7.65331 141.694 7.65331C141.428 7.45005 141.114 7.32497 140.801 7.2468C140.707 7.23116 140.613 7.19989 140.519 7.19989C140.441 7.16862 140.316 7.15298 140.206 7.15298Z" fill="#2A2D43"/>
    <path opacity="0.25" fill-rule="evenodd" clip-rule="evenodd" d="M137.388 10.6396C137.388 10.7335 137.404 10.8116 137.419 10.9054C137.451 11.0462 137.482 11.1712 137.529 11.312C137.545 11.3745 137.576 11.437 137.607 11.4996C137.67 11.6247 137.732 11.7498 137.826 11.8592C137.826 11.8748 137.842 11.8748 137.842 11.8905C138.797 11.8905 139.752 11.8123 139.752 11.8123L142.054 8.6227C141.991 8.49762 141.913 8.37253 141.834 8.24745C141.772 8.18491 141.725 8.12237 141.647 8.07546C141.615 8.04419 141.568 8.01292 141.537 7.99729C141.521 7.99729 141.521 7.98165 141.506 7.98165C141.271 7.80966 141.005 7.68458 140.738 7.62204C140.66 7.6064 140.582 7.59077 140.488 7.57513C140.003 8.37253 139.001 9.7328 137.388 10.6396Z" fill="#2A2D43"/>
    <path opacity="0.2" fill-rule="evenodd" clip-rule="evenodd" d="M139.783 8.09109C139.783 8.09109 138.985 8.18491 138.531 8.70087C138.093 9.2012 137.967 9.92042 137.967 9.92042C137.967 9.92042 138.265 9.35755 138.703 8.87286C139.095 8.45071 139.737 8.138 139.783 8.09109Z" fill="white"/>
    <path opacity="0.2" fill-rule="evenodd" clip-rule="evenodd" d="M136.339 4.94843C136.339 4.94843 135.415 5.15168 135.118 6.13671C134.82 7.12173 135.494 6.98101 135.541 6.57449C135.588 6.19925 135.541 5.91781 135.901 5.54257C136.229 5.21422 136.496 4.96406 136.339 4.94843Z" fill="white"/>
    <path fill-rule="evenodd" clip-rule="evenodd" d="M139.157 26.8534C138.233 27.6821 137.184 28.4951 136.182 29.1518C134.617 30.1837 133.129 30.8717 132.205 30.7935C131.939 30.7779 131.704 30.5903 131.626 30.3401C131.36 29.4489 131.72 27.6665 133.38 25.3368C133.912 24.5863 134.57 23.7733 135.399 22.929C136.636 24.2423 137.905 25.5401 139.157 26.8534Z" fill="#6355E0"/>
    <path d="M132.331 30.9968C132.284 30.9968 132.237 30.9968 132.174 30.9968C131.83 30.9655 131.517 30.731 131.423 30.4026C131.141 29.4958 131.47 27.6665 133.208 25.243C133.771 24.4456 134.46 23.6326 135.243 22.8195C135.274 22.7883 135.321 22.757 135.384 22.757C135.431 22.757 135.478 22.7726 135.525 22.8195C136.777 24.1173 138.03 25.4306 139.298 26.7283C139.329 26.7596 139.361 26.8222 139.345 26.8691C139.345 26.916 139.314 26.9629 139.282 27.0098C138.327 27.8697 137.294 28.6671 136.276 29.3394C135.306 29.9492 133.536 30.9968 132.331 30.9968ZM135.384 23.2104C134.664 23.9609 134.037 24.7114 133.521 25.4463C131.877 27.7759 131.548 29.4645 131.798 30.2932C131.845 30.4652 132.018 30.6059 132.221 30.6215C133.02 30.6841 134.429 30.0899 136.073 29.0111C137.028 28.3857 137.983 27.6508 138.891 26.8534C137.717 25.6339 136.558 24.43 135.384 23.2104Z" fill="#2A2D43"/>
    <path opacity="0.25" fill-rule="evenodd" clip-rule="evenodd" d="M139.157 26.8534C138.234 27.6821 137.185 28.4951 136.182 29.1518C136.151 29.0424 136.104 28.9329 136.057 28.8078C135.556 27.4007 134.946 26.6502 134.147 25.8215C133.928 25.587 133.646 25.4306 133.364 25.3368C133.897 24.5863 134.554 23.7733 135.384 22.929C136.637 24.2423 137.905 25.5401 139.157 26.8534Z" fill="#2A2D43"/>
    <path opacity="0.2" fill-rule="evenodd" clip-rule="evenodd" d="M132.174 29.0424C132.174 29.0424 131.783 29.7147 132.112 30.0899C132.441 30.4652 134.006 29.7929 134.006 29.7929C134.006 29.7929 133.192 29.9179 132.816 29.746C132.456 29.5896 132.331 28.6515 132.174 29.0424Z" fill="white"/>
    <path fill-rule="evenodd" clip-rule="evenodd" d="M156.865 26.8534C157.789 27.6821 158.838 28.4951 159.84 29.1518C161.405 30.1837 162.893 30.8717 163.817 30.7935C164.083 30.7779 164.318 30.5903 164.396 30.3401C164.662 29.4489 164.302 27.6665 162.642 25.3368C162.11 24.5863 161.452 23.7733 160.623 22.929C159.37 24.2423 158.118 25.5401 156.865 26.8534Z" fill="#6355E0"/>
    <path d="M163.676 30.9968C162.47 30.9968 160.701 29.9649 159.73 29.3238C158.712 28.6671 157.679 27.8541 156.724 26.9942C156.693 26.9629 156.661 26.916 156.661 26.8534C156.661 26.8065 156.677 26.744 156.708 26.7127C157.961 25.415 159.213 24.1016 160.482 22.8039C160.513 22.7726 160.56 22.7414 160.623 22.7414C160.67 22.7414 160.716 22.757 160.763 22.8039C161.546 23.6169 162.235 24.43 162.799 25.2274C164.537 27.6508 164.85 29.4958 164.584 30.387C164.49 30.7154 164.177 30.9499 163.832 30.9812C163.785 30.9968 163.738 30.9968 163.676 30.9968ZM157.131 26.8378C158.024 27.6352 158.994 28.3701 159.949 28.9955C161.609 30.0743 163.002 30.6684 163.801 30.6059C163.989 30.5903 164.161 30.4652 164.224 30.2776C164.474 29.4645 164.145 27.7603 162.501 25.4463C161.985 24.7114 161.358 23.9609 160.638 23.2104C159.464 24.43 158.305 25.6339 157.131 26.8378Z" fill="#2A2D43"/>
    <path opacity="0.25" fill-rule="evenodd" clip-rule="evenodd" d="M156.865 26.8534C157.789 27.6821 158.838 28.4951 159.84 29.1518C159.871 29.0424 159.918 28.9329 159.965 28.8078C160.466 27.4007 161.077 26.6502 161.875 25.8215C162.094 25.587 162.376 25.4306 162.658 25.3368C162.126 24.5863 161.468 23.7733 160.638 22.929C159.37 24.2423 158.118 25.5401 156.865 26.8534Z" fill="#2A2D43"/>
    <path opacity="0.2" fill-rule="evenodd" clip-rule="evenodd" d="M163.848 29.0424C163.848 29.0424 164.239 29.7147 163.911 30.0899C163.582 30.4495 162.016 29.7929 162.016 29.7929C162.016 29.7929 162.83 29.9179 163.206 29.746C163.566 29.5896 163.691 28.6515 163.848 29.0424Z" fill="white"/>
    <path fill-rule="evenodd" clip-rule="evenodd" d="M159.307 34.7336C158.54 35.359 149.898 35.359 149.256 34.7336C149.115 33.8268 148.927 32.8574 149.131 32.0131C149.35 31.9505 149.585 31.888 149.851 31.8254C152.904 31.0593 158.603 30.0743 159.292 34.6085C159.292 34.6554 159.292 34.6867 159.307 34.7336Z" fill="#2A2D43"/>
    <path d="M154.235 35.3903C153.17 35.3903 149.632 35.359 149.131 34.8743C149.099 34.843 149.084 34.8118 149.068 34.7649C149.052 34.6554 149.037 34.546 149.021 34.4365C148.896 33.6079 148.755 32.7636 148.943 31.9662C148.958 31.9036 149.005 31.8411 149.084 31.8254C149.303 31.7629 149.538 31.7004 149.804 31.6378C153.515 30.6997 156.223 30.7622 157.82 31.8254C158.728 32.4352 159.292 33.3577 159.48 34.5929C159.48 34.6398 159.495 34.6867 159.495 34.7336C159.511 34.7961 159.48 34.8587 159.433 34.9056C158.822 35.3746 154.986 35.3903 154.235 35.3903ZM149.444 34.6242C149.804 34.8118 151.62 34.9994 154.235 34.9994C156.881 34.9994 158.634 34.8118 159.104 34.6242C158.932 33.4984 158.431 32.6698 157.617 32.1225C156.114 31.1219 153.515 31.075 149.913 31.9974C149.694 32.06 149.491 32.1069 149.303 32.1538C149.178 32.8417 149.287 33.6235 149.412 34.374C149.412 34.4678 149.428 34.546 149.444 34.6242Z" fill="#2A2D43"/>
    <path opacity="0.2" fill-rule="evenodd" clip-rule="evenodd" d="M154.673 31.5909C154.673 31.5909 156.067 31.6065 157.053 32.0756C158.039 32.5603 158.462 33.3577 158.462 33.3577C158.462 33.3577 156.771 31.9193 154.673 31.5909Z" fill="white"/>
    <path opacity="0.25" fill-rule="evenodd" clip-rule="evenodd" d="M159.307 34.7336C158.54 35.359 149.898 35.359 149.256 34.7336C149.115 33.8268 148.927 32.8574 149.131 32.0131C149.35 31.9505 150.54 31.6691 150.806 31.5909C150.806 31.5909 150.728 33.1701 151.698 33.686C154.25 35.015 158.869 34.5772 158.869 34.5772L159.307 34.6085C159.292 34.6554 159.292 34.6867 159.307 34.7336Z" fill="#2A2D43"/>
    <path opacity="0.35" fill-rule="evenodd" clip-rule="evenodd" d="M149.459 32.3258C149.459 32.3258 149.428 33.1545 149.459 33.5297C149.491 33.9049 149.6 34.6085 149.6 34.6085C149.6 34.6085 152.45 34.9212 154.219 34.8743C155.988 34.8274 158.854 34.5773 158.854 34.5773C158.854 34.5773 155.534 34.6398 154.438 34.5929C153.342 34.546 151.965 34.5773 150.978 34.2176C150.07 33.8737 149.553 32.0913 149.459 32.3258Z" fill="#2A2D43"/>
    <path fill-rule="evenodd" clip-rule="evenodd" d="M136.887 34.7336C137.654 35.359 146.297 35.359 146.939 34.7336C147.08 33.8268 147.267 32.8574 147.064 32.0131C146.845 31.9505 146.61 31.888 146.344 31.8254C143.291 31.0593 137.592 30.0743 136.903 34.6085C136.903 34.6554 136.887 34.6867 136.887 34.7336Z" fill="#2A2D43"/>
    <path d="M141.96 35.3903C141.193 35.3903 137.372 35.359 136.762 34.89C136.715 34.8431 136.683 34.7805 136.699 34.718C136.699 34.6711 136.715 34.6242 136.715 34.5773C136.903 33.3577 137.451 32.4196 138.374 31.8254C139.971 30.7622 142.68 30.6997 146.391 31.6378C146.657 31.7004 146.892 31.7629 147.111 31.8254C147.174 31.8411 147.236 31.9036 147.252 31.9662C147.44 32.7636 147.299 33.6079 147.174 34.4365C147.158 34.546 147.142 34.6554 147.127 34.7649C147.127 34.8118 147.095 34.843 147.064 34.8743C146.563 35.359 143.024 35.3903 141.96 35.3903ZM137.091 34.6398C137.545 34.8274 139.298 35.015 141.96 35.015C144.59 35.015 146.406 34.8274 146.751 34.6398C146.766 34.5616 146.782 34.4678 146.782 34.3896C146.892 33.6391 147.017 32.873 146.892 32.1694C146.704 32.1225 146.5 32.06 146.281 32.0131C142.68 31.0906 140.081 31.1375 138.578 32.1382C137.764 32.6697 137.263 33.5141 137.091 34.6398Z" fill="#2A2D43"/>
    <path opacity="0.2" fill-rule="evenodd" clip-rule="evenodd" d="M141.506 31.5909C141.506 31.5909 140.112 31.6065 139.126 32.0756C138.14 32.5603 137.717 33.3577 137.717 33.3577C137.717 33.3577 139.423 31.9193 141.506 31.5909Z" fill="white"/>
    <path opacity="0.25" fill-rule="evenodd" clip-rule="evenodd" d="M136.887 34.7336C137.654 35.359 146.297 35.359 146.939 34.7336C147.08 33.8268 147.267 32.8574 147.064 32.0131C146.845 31.9505 145.655 31.6691 145.389 31.5909C145.389 31.5909 145.467 33.1701 144.496 33.686C141.944 35.015 137.325 34.5772 137.325 34.5772L136.887 34.6085C136.903 34.6554 136.887 34.6867 136.887 34.7336Z" fill="#2A2D43"/>
    <path opacity="0.35" fill-rule="evenodd" clip-rule="evenodd" d="M146.72 32.3258C146.72 32.3258 146.751 33.1545 146.72 33.5297C146.688 33.9049 146.579 34.6085 146.579 34.6085C146.579 34.6085 143.729 34.9212 141.96 34.8743C140.191 34.8274 137.325 34.5773 137.325 34.5773C137.325 34.5773 140.645 34.6398 141.741 34.5929C142.837 34.546 144.214 34.5773 145.201 34.2176C146.109 33.8737 146.641 32.0913 146.72 32.3258Z" fill="#2A2D43"/>
    <path fill-rule="evenodd" clip-rule="evenodd" d="M161.954 20.9276C161.954 27.4945 155.722 32.8104 148.05 32.8104C140.379 32.8104 134.147 27.4945 134.147 20.9276C134.147 14.3608 140.379 6.29303 148.05 6.29303C155.722 6.29303 161.954 14.3608 161.954 20.9276Z" fill="#847EED"/>
    <path d="M148.05 32.9981C140.285 32.9981 133.959 27.5883 133.959 20.9277C133.959 17.6442 135.494 13.9387 138.077 11.0149C140.895 7.84093 144.434 6.08978 148.05 6.08978C151.667 6.08978 155.206 7.84093 158.024 11.0149C160.607 13.9231 162.141 17.6286 162.141 20.9277C162.141 27.5883 155.816 32.9981 148.05 32.9981ZM148.05 6.48066C144.543 6.48066 141.099 8.18491 138.359 11.2807C135.838 14.1263 134.335 17.7381 134.335 20.9277C134.335 27.3694 140.488 32.6072 148.05 32.6072C155.613 32.6072 161.766 27.3694 161.766 20.9277C161.766 17.7224 160.263 14.1107 157.742 11.2807C155.002 8.18491 151.557 6.48066 148.05 6.48066Z" fill="#2A2D43"/>
    <path fill-rule="evenodd" clip-rule="evenodd" d="M161.766 20.9276C161.766 21.1309 161.766 21.3342 161.75 21.5374C161.39 27.6039 155.534 32.5134 148.426 32.701C148.269 32.701 148.113 32.701 147.972 32.701C147.643 32.701 147.314 32.6854 146.986 32.6697C140.691 31.8411 135.854 26.9003 135.854 20.912C135.854 14.7986 140.911 7.35624 147.424 6.38685C147.596 6.37122 147.784 6.37122 147.956 6.37122C148.113 6.37122 148.269 6.37122 148.41 6.38685C155.393 6.68392 161.202 13.8136 161.719 20.0052C161.734 20.099 161.734 20.2084 161.734 20.3022C161.75 20.5211 161.766 20.7244 161.766 20.9276Z" fill="#6355E0"/>
    <path fill-rule="evenodd" clip-rule="evenodd" d="M136.887 16.5967C136.887 16.5967 140.754 6.98102 147.925 6.98102C149.444 6.98102 150.915 7.34063 152.262 7.98168C151.229 7.6377 150.164 7.43444 149.052 7.43444C141.866 7.45008 136.887 16.5967 136.887 16.5967Z" fill="white"/>
    <path fill-rule="evenodd" clip-rule="evenodd" d="M137.059 19.7081C136.636 22.1159 136.495 24.5238 138.28 26.4938C140.331 28.7609 149.679 28.714 152.559 28.3231C154.971 27.9948 157.585 26.7283 158.008 25.5244C158.947 22.8508 158.853 20.2397 157.491 18.1289C156.521 16.6279 154.516 16.925 152.873 16.9094C150.994 16.8937 137.482 17.2221 137.059 19.7081Z" fill="#F1F2F2"/>
    <path d="M148.442 28.7297C144.59 28.7297 139.627 28.2762 138.14 26.6345C136.229 24.5081 136.48 21.9283 136.871 19.6768C137.075 18.5198 139.533 17.6912 144.402 17.1752C148.222 16.7687 152.121 16.7061 152.873 16.7061C153.107 16.7061 153.358 16.7061 153.608 16.7061C155.096 16.6749 156.771 16.6436 157.664 18.0195C159.01 20.1146 159.198 22.7413 158.196 25.587C157.726 26.9472 154.908 28.1981 152.591 28.5108C151.73 28.6358 150.195 28.7297 148.442 28.7297ZM137.247 19.7394C136.871 21.897 136.621 24.3674 138.421 26.3687C139.267 27.3068 141.631 27.9635 145.122 28.2137C148.003 28.4326 151.025 28.3388 152.544 28.1355C154.939 27.8072 157.46 26.5407 157.836 25.4619C158.806 22.7257 158.634 20.2241 157.335 18.2228C156.568 17.0345 155.065 17.0501 153.608 17.0814C153.358 17.0814 153.107 17.097 152.873 17.0814C149.538 17.0657 137.607 17.6286 137.247 19.7394Z" fill="#2A2D43"/>
    <path fill-rule="evenodd" clip-rule="evenodd" d="M157.35 25.3524C156.928 26.4938 154.438 27.6821 152.152 27.9948C149.397 28.3701 140.472 28.417 138.531 26.2593C136.824 24.3674 136.965 22.0847 137.357 19.7863C137.388 19.583 137.529 19.3798 137.732 19.2078C137.341 21.5062 137.2 23.8046 138.907 25.6808C140.864 27.8541 149.772 27.7915 152.528 27.4163C154.438 27.1661 156.474 26.2906 157.35 25.3524Z" fill="#E6E7E8"/>
    <path d="M148.003 25.1492C146.766 25.1492 145.764 24.3674 145.749 24.3674C145.623 24.2736 145.608 24.086 145.702 23.9609C145.796 23.8358 145.984 23.8202 146.109 23.914C146.187 23.9765 147.988 25.3837 149.6 23.9296C149.71 23.8202 149.898 23.8358 150.007 23.9453C150.117 24.0547 150.101 24.2423 149.992 24.3518C149.334 24.9616 148.63 25.1492 148.003 25.1492Z" fill="#2A2D43"/>
    <path fill-rule="evenodd" clip-rule="evenodd" d="M149.444 17.5661C149.444 17.5661 154.986 17.1908 155.863 17.6912C156.755 18.1915 157.507 19.1296 157.726 20.6306C157.945 22.1316 157.867 22.9446 157.867 22.9446C157.867 22.9446 157.491 18.7387 154.783 18.2853C152.09 17.8319 149.444 17.5661 149.444 17.5661Z" fill="white"/>
    <path opacity="0.2" fill-rule="evenodd" clip-rule="evenodd" d="M151.526 16.3309C151.479 16.3465 151.495 16.4091 151.542 16.4091C152.324 16.3153 154.626 16.0807 155.879 16.3622C157.147 16.6436 158.196 16.925 158.65 18.4573C158.947 19.4267 158.994 20.2866 159.073 20.8026C159.088 20.8651 159.166 20.8495 159.166 20.8026C159.213 19.8488 159.245 17.7537 158.556 16.9876C158.024 16.3622 155.017 15.2052 151.526 16.3309Z" fill="white"/>
    <path fill-rule="evenodd" clip-rule="evenodd" d="M152.857 21.0527C153.546 21.0371 154.125 21.6625 154.141 22.4443C154.156 23.226 153.608 23.8827 152.92 23.8984C152.231 23.914 151.651 23.2886 151.636 22.5068C151.636 21.7094 152.168 21.0684 152.857 21.0527Z" fill="#121B36"/>
    <path fill-rule="evenodd" clip-rule="evenodd" d="M152.951 21.0684C152.951 21.0684 153.468 21.0997 153.671 21.0684C153.937 21.0215 154.313 20.6931 154.329 20.6619C154.376 20.615 154.266 20.9902 154.047 21.2873C153.984 21.3655 153.922 21.4749 154.423 21.256C155.018 21.0058 155.018 20.8026 155.033 20.8808C155.065 21.256 154.423 21.9752 154.016 22.0221C153.609 22.069 152.951 21.0684 152.951 21.0684Z" fill="#121B36"/>
    <path fill-rule="evenodd" clip-rule="evenodd" d="M143.228 21.0527C142.539 21.0371 141.96 21.6625 141.944 22.4443C141.928 23.226 142.476 23.8827 143.165 23.8984C143.854 23.914 144.433 23.2886 144.449 22.5068C144.465 21.7251 143.917 21.0684 143.228 21.0527Z" fill="#121B36"/>
    <path fill-rule="evenodd" clip-rule="evenodd" d="M143.15 21.0684C143.15 21.0684 142.633 21.0997 142.429 21.0684C142.163 21.0215 141.787 20.6931 141.772 20.6619C141.725 20.615 141.834 20.9902 142.054 21.2873C142.116 21.3655 142.179 21.4749 141.678 21.256C141.083 21.0058 141.083 20.8026 141.067 20.8808C141.036 21.256 141.678 21.9752 142.085 22.0221C142.476 22.069 143.15 21.0684 143.15 21.0684Z" fill="#121B36"/>
    <path fill-rule="evenodd" clip-rule="evenodd" d="M159.417 10.796C159.12 10.624 157.851 8.5758 157.851 8.5758L158.352 7.93475C158.352 7.93475 160.576 8.09111 160.967 8.38818C161.358 8.68525 160.591 9.57646 160.372 9.84226C160.294 9.9517 160.169 10.155 160.028 10.3426C159.824 10.6397 159.605 10.9055 159.417 10.796Z" fill="#72BF44"/>
    <path d="M159.511 11.0149C159.448 11.0149 159.386 10.9993 159.323 10.968C159.01 10.7804 157.992 9.16994 157.695 8.68525L157.616 8.5758L158.274 7.74713H158.368C158.744 7.7784 160.67 7.91912 161.077 8.23182C161.171 8.31 161.249 8.41945 161.264 8.54453C161.311 8.91978 160.951 9.4201 160.607 9.85789C160.576 9.9048 160.544 9.93607 160.529 9.96734C160.497 10.0142 160.435 10.0924 160.388 10.1706C160.325 10.2644 160.262 10.3582 160.2 10.4677C160.059 10.6397 159.808 11.0149 159.511 11.0149ZM158.086 8.59144C158.665 9.52955 159.339 10.4989 159.511 10.624C159.542 10.6084 159.652 10.5615 159.871 10.2331C159.934 10.1393 159.996 10.0455 160.059 9.9517C160.122 9.85789 160.169 9.77972 160.215 9.71717C160.247 9.6859 160.262 9.65463 160.309 9.60773C160.482 9.38883 160.92 8.8416 160.889 8.59144C160.889 8.56016 160.873 8.54453 160.857 8.52889C160.623 8.35691 159.339 8.18492 158.446 8.12238L158.086 8.59144Z" fill="#2A2D43"/>
    <path opacity="0.25" fill-rule="evenodd" clip-rule="evenodd" d="M159.417 10.796C159.12 10.624 157.851 8.57581 157.851 8.57581L158.071 8.29437L158.368 8.41945C158.368 8.41945 158.681 9.31067 159.339 9.87354C159.636 10.1081 159.855 10.2644 160.028 10.3582C159.824 10.6397 159.605 10.9055 159.417 10.796Z" fill="#2A2D43"/>
    <path opacity="0.2" fill-rule="evenodd" clip-rule="evenodd" d="M159.887 8.51324C159.887 8.51324 160.388 8.54452 160.497 8.74777C160.607 8.95103 160.278 9.29501 160.278 9.29501C160.278 9.29501 160.403 8.84158 159.887 8.51324Z" fill="white"/>
    <path fill-rule="evenodd" clip-rule="evenodd" d="M154.767 7.15298C155.002 7.40315 157.303 8.13801 157.303 8.13801L157.804 7.49696C157.804 7.49696 157.116 5.3862 156.74 5.07349C156.364 4.76079 155.675 5.73017 155.472 5.99597C155.378 6.10542 155.221 6.27741 155.064 6.4494C154.814 6.7152 154.61 7.01227 154.767 7.15298Z" fill="#72BF44"/>
    <path d="M157.366 8.37253L157.241 8.32563C156.693 8.15364 154.876 7.54386 154.626 7.2937C154.328 6.99663 154.736 6.52757 154.908 6.32431C154.986 6.2305 155.064 6.15233 155.143 6.05851C155.205 5.98034 155.268 5.9178 155.315 5.87089C155.331 5.83962 155.362 5.80835 155.393 5.77708C155.738 5.33929 156.129 4.87023 156.505 4.82333C156.63 4.80769 156.755 4.83896 156.849 4.93277C157.256 5.26112 157.851 7.07481 157.977 7.45005L158.008 7.54386L157.366 8.37253ZM154.908 7.0279C155.08 7.16862 156.192 7.57514 157.241 7.91911L157.601 7.46569C157.319 6.60575 156.849 5.41747 156.63 5.22984C156.614 5.21421 156.599 5.21421 156.567 5.21421C156.317 5.24548 155.879 5.80835 155.706 6.01161C155.675 6.05851 155.644 6.08978 155.628 6.12106C155.581 6.1836 155.518 6.24614 155.44 6.32431C155.362 6.40249 155.284 6.48067 155.205 6.57448C154.923 6.88718 154.908 6.99663 154.908 7.0279Z" fill="#2A2D43"/>
    <path opacity="0.25" fill-rule="evenodd" clip-rule="evenodd" d="M154.767 7.15298C155.002 7.40314 157.303 8.138 157.303 8.138L157.523 7.85657L157.335 7.6064C157.335 7.6064 156.395 7.52822 155.691 7.01226C155.393 6.79337 155.19 6.60574 155.049 6.46503C154.814 6.71519 154.61 7.01226 154.767 7.15298Z" fill="#2A2D43"/>
    <path opacity="0.2" fill-rule="evenodd" clip-rule="evenodd" d="M156.865 6.15233C156.865 6.15233 156.708 5.66763 156.489 5.62073C156.27 5.57382 156.004 5.9647 156.004 5.9647C156.004 5.9647 156.426 5.73018 156.865 6.15233Z" fill="white"/>
    <path fill-rule="evenodd" clip-rule="evenodd" d="M158.556 8.41944L158.462 8.54452C158.462 8.56016 158.446 8.56016 158.446 8.57579C158.211 8.85723 157.789 8.90413 157.491 8.6696L157.288 8.51325C157.006 8.29436 156.943 7.88784 157.131 7.59077C157.147 7.57514 157.147 7.5595 157.162 7.54386L157.256 7.41878C157.491 7.12171 157.93 7.05917 158.227 7.2937L158.431 7.45005C158.728 7.68458 158.791 8.12237 158.556 8.41944Z" fill="#72BF44"/>
    <path d="M157.914 8.99795C157.726 8.99795 157.538 8.93541 157.366 8.81033L157.162 8.65398C156.802 8.37254 156.724 7.85658 156.959 7.48133C156.974 7.45006 156.99 7.43443 157.006 7.41879L157.1 7.29371C157.241 7.10609 157.46 6.99664 157.695 6.96537C157.929 6.9341 158.164 6.99664 158.352 7.15299L158.556 7.30934C158.744 7.45006 158.853 7.66895 158.885 7.90348C158.916 8.13801 158.853 8.37254 158.697 8.56017L158.603 8.68525C158.587 8.70088 158.587 8.71652 158.571 8.73215C158.399 8.90414 158.149 8.99795 157.914 8.99795ZM157.804 7.34061C157.789 7.34061 157.757 7.34061 157.742 7.34061C157.601 7.35625 157.491 7.41879 157.413 7.52824L157.319 7.65332L157.303 7.66895L157.288 7.68459C157.147 7.90348 157.194 8.20055 157.397 8.35691L157.601 8.51326C157.804 8.68525 158.117 8.65398 158.29 8.45072L158.399 8.31C158.477 8.20055 158.524 8.07547 158.509 7.93475C158.493 7.79404 158.43 7.68459 158.321 7.60641L158.117 7.45006C158.023 7.37188 157.914 7.34061 157.804 7.34061Z" fill="#2A2D43"/>
    <path opacity="0.25" fill-rule="evenodd" clip-rule="evenodd" d="M158.478 8.52889C158.243 8.81032 157.773 8.8885 157.476 8.65397L157.272 8.49761C156.99 8.27872 156.928 7.8722 157.115 7.57513H157.178C157.194 7.57513 157.726 8.3569 158.478 8.52889Z" fill="#2A2D43"/>
    <path fill-rule="evenodd" clip-rule="evenodd" d="M136.433 10.796C136.73 10.624 137.999 8.5758 137.999 8.5758L137.498 7.93475C137.498 7.93475 135.274 8.09111 134.883 8.38818C134.492 8.68525 135.259 9.57646 135.478 9.84226C135.556 9.9517 135.681 10.155 135.822 10.3426C136.026 10.6397 136.261 10.9055 136.433 10.796Z" fill="#ED1C24"/>
    <path d="M136.355 11.0149C136.057 11.0149 135.791 10.6396 135.666 10.452C135.603 10.3582 135.525 10.2488 135.478 10.155C135.431 10.0768 135.368 9.9986 135.337 9.93606C135.321 9.90479 135.29 9.87352 135.259 9.82661C134.914 9.38882 134.554 8.88849 134.601 8.51325C134.617 8.38817 134.679 8.27872 134.789 8.20054C135.212 7.88784 137.122 7.73149 137.498 7.71585H137.592L138.249 8.54452L138.171 8.65397C137.873 9.13866 136.856 10.7491 136.543 10.9367C136.48 10.9993 136.417 11.0149 136.355 11.0149ZM137.419 8.138C136.527 8.20054 135.243 8.37253 135.008 8.54452C134.992 8.56015 134.977 8.57579 134.977 8.60706C134.946 8.85722 135.384 9.42009 135.556 9.62335C135.587 9.67026 135.619 9.70153 135.634 9.7328C135.681 9.79534 135.728 9.87352 135.791 9.96733C135.854 10.0611 135.916 10.155 135.979 10.2488C136.214 10.5771 136.323 10.6396 136.339 10.6396C136.511 10.5146 137.184 9.52954 137.764 8.60706L137.419 8.138Z" fill="#2A2D43"/>
    <path opacity="0.25" fill-rule="evenodd" clip-rule="evenodd" d="M136.433 10.796C136.73 10.624 137.999 8.57578 137.999 8.57578L137.779 8.29434L137.482 8.41942C137.482 8.41942 137.169 9.31063 136.511 9.8735C136.214 10.108 135.994 10.2644 135.822 10.3582C136.026 10.6396 136.261 10.9054 136.433 10.796Z" fill="#2A2D43"/>
    <path opacity="0.2" fill-rule="evenodd" clip-rule="evenodd" d="M135.979 8.51324C135.979 8.51324 135.478 8.54452 135.368 8.74777C135.259 8.95103 135.588 9.29501 135.588 9.29501C135.588 9.29501 135.447 8.84159 135.979 8.51324Z" fill="white"/>
    <path fill-rule="evenodd" clip-rule="evenodd" d="M141.099 7.15298C140.864 7.40315 138.562 8.13801 138.562 8.13801L138.061 7.49696C138.061 7.49696 138.75 5.3862 139.126 5.07349C139.502 4.76079 140.191 5.73017 140.394 5.99597C140.488 6.10542 140.645 6.27741 140.801 6.4494C141.036 6.7152 141.24 7.01227 141.099 7.15298Z" fill="#ED1C24"/>
    <path d="M138.5 8.37254L137.842 7.54387L137.873 7.45006C137.999 7.09045 138.594 5.26112 139.001 4.93278C139.095 4.8546 139.22 4.82333 139.345 4.82333C139.721 4.87024 140.128 5.3393 140.457 5.77709C140.488 5.82399 140.519 5.85526 140.535 5.88653C140.582 5.93344 140.629 5.99598 140.707 6.07416C140.786 6.15233 140.864 6.24614 140.942 6.33995C141.114 6.54321 141.521 6.99664 141.224 7.29371C140.973 7.55951 139.157 8.15365 138.609 8.32563L138.5 8.37254ZM138.28 7.46569L138.641 7.91912C139.69 7.57514 140.801 7.16862 140.973 7.02791C140.973 6.99664 140.942 6.88719 140.676 6.57448C140.598 6.48067 140.519 6.4025 140.441 6.32432C140.363 6.24614 140.3 6.16797 140.253 6.12106C140.222 6.08979 140.206 6.05852 140.159 6.01161C139.987 5.79272 139.549 5.22985 139.298 5.21422C139.267 5.21422 139.251 5.21422 139.235 5.22985C139.016 5.40184 138.562 6.60575 138.28 7.46569Z" fill="#2A2D43"/>
    <path opacity="0.25" fill-rule="evenodd" clip-rule="evenodd" d="M141.099 7.15299C140.864 7.40315 138.562 8.13801 138.562 8.13801L138.343 7.85658L138.531 7.59078C138.531 7.59078 139.47 7.5126 140.175 6.99664C140.472 6.77774 140.676 6.59012 140.817 6.4494C141.036 6.7152 141.24 7.01227 141.099 7.15299Z" fill="#2A2D43"/>
    <path opacity="0.2" fill-rule="evenodd" clip-rule="evenodd" d="M138.985 6.15233C138.985 6.15233 139.141 5.66763 139.361 5.62073C139.58 5.57382 139.846 5.96471 139.846 5.96471C139.846 5.96471 139.439 5.73018 138.985 6.15233Z" fill="white"/>
    <path fill-rule="evenodd" clip-rule="evenodd" d="M137.31 8.41947L137.404 8.54455C137.404 8.56019 137.419 8.56019 137.419 8.57582C137.654 8.85726 138.077 8.90416 138.374 8.66963L138.578 8.51328C138.86 8.29439 138.922 7.88787 138.735 7.5908C138.719 7.57517 138.719 7.55953 138.703 7.5439L138.609 7.41881C138.374 7.12174 137.936 7.0592 137.639 7.29373L137.435 7.45008C137.122 7.68461 137.075 8.1224 137.31 8.41947Z" fill="#ED1C24"/>
    <path d="M137.952 8.99797C137.701 8.99797 137.466 8.88852 137.294 8.7009C137.278 8.68526 137.278 8.66962 137.263 8.66962L137.153 8.54454C137.012 8.35692 136.95 8.12239 136.965 7.88786C136.997 7.65333 137.106 7.45007 137.294 7.29372L137.498 7.13737C137.889 6.8403 138.437 6.90284 138.734 7.29372L138.828 7.4188C138.844 7.45007 138.86 7.46571 138.875 7.49698C139.126 7.87223 139.032 8.38819 138.672 8.66962L138.468 8.82598C138.327 8.93542 138.139 8.99797 137.952 8.99797ZM137.466 8.31001L137.576 8.45073C137.748 8.65399 138.046 8.68526 138.265 8.51327L138.468 8.35692C138.672 8.20057 138.719 7.9035 138.578 7.6846L138.562 7.66897L138.547 7.65333L138.453 7.52825C138.28 7.30936 137.967 7.27809 137.748 7.43444L137.545 7.59079C137.435 7.66897 137.372 7.79405 137.357 7.91913C137.341 8.07548 137.372 8.20057 137.466 8.31001Z" fill="#2A2D43"/>
    <path opacity="0.25" fill-rule="evenodd" clip-rule="evenodd" d="M137.372 8.52889C137.607 8.81032 138.077 8.8885 138.374 8.65397L138.578 8.49762C138.86 8.27872 138.922 7.8722 138.734 7.57513H138.672C138.672 7.57513 138.124 8.3569 137.372 8.52889Z" fill="#2A2D43"/>
    </svg>
